<svg width="40" height="40" viewBox="0 0 40 40" fill="none" xmlns="http://www.w3.org/2000/svg">
  <!-- OllaZen -->
  
  <!-- Outer glow -->
  <circle cx="20" cy="20" r="18" fill="url(#outerGlow)" opacity="0.2"/>
  
  <!-- Main shape - lotus/flower inspired -->
  <path d="M20 5 C20 5 15 10 15 15 C15 18 17 20 20 20 C23 20 25 18 25 15 C25 10 20 5 20 5 Z" fill="url(#petal1)"/>
  <path d="M20 35 C20 35 15 30 15 25 C15 22 17 20 20 20 C23 20 25 22 25 25 C25 30 20 35 20 35 Z" fill="url(#petal2)"/>
  <path d="M5 20 C5 20 10 15 15 15 C18 15 20 17 20 20 C20 23 18 25 15 25 C10 25 5 20 5 20 Z" fill="url(#petal3)"/>
  <path d="M35 20 C35 20 30 15 25 15 C22 15 20 17 20 20 C20 23 22 25 25 25 C30 25 35 20 35 20 Z" fill="url(#petal4)"/>
  
  <!-- Center circle -->
  <circle cx="20" cy="20" r="6" fill="url(#center)" stroke="white" stroke-width="1" opacity="0.95"/>
  
  <!-- Center dot -->
  <circle cx="20" cy="20" r="2" fill="white" opacity="0.9"/>
  
  <!-- Sparkles -->
  <circle cx="20" cy="8" r="1.5" fill="white" opacity="0.8"/>
  <circle cx="20" cy="32" r="1.5" fill="white" opacity="0.8"/>
  <circle cx="8" cy="20" r="1.5" fill="white" opacity="0.8"/>
  <circle cx="32" cy="20" r="1.5" fill="white" opacity="0.8"/>
  
  <defs>
    <radialGradient id="outerGlow">
      <stop offset="0%" style="stop-color:#9b87f5"/>
      <stop offset="100%" style="stop-color:#9b87f5;stop-opacity:0"/>
    </radialGradient>
    <linearGradient id="petal1" x1="20" y1="5" x2="20" y2="20">
      <stop offset="0%" style="stop-color:#B8A8E8"/>
      <stop offset="100%" style="stop-color:#9b87f5"/>
    </linearGradient>
    <linearGradient id="petal2" x1="20" y1="35" x2="20" y2="20">
      <stop offset="0%" style="stop-color:#B8A8E8"/>
      <stop offset="100%" style="stop-color:#9b87f5"/>
    </linearGradient>
    <linearGradient id="petal3" x1="5" y1="20" x2="20" y2="20">
      <stop offset="0%" style="stop-color:#B8A8E8"/>
      <stop offset="100%" style="stop-color:#9b87f5"/>
    </linearGradient>
    <linearGradient id="petal4" x1="35" y1="20" x2="20" y2="20">
      <stop offset="0%" style="stop-color:#B8A8E8"/>
      <stop offset="100%" style="stop-color:#9b87f5"/>
    </linearGradient>
    <radialGradient id="center">
      <stop offset="0%" style="stop-color:#9b87f5"/>
      <stop offset="100%" style="stop-color:#7E69AB"/>
    </radialGradient>
  </defs>
</svg>
